<svg width="16" height="16" viewBox="0 0 12 12" fill="none" xmlns="http://www.w3.org/2000/svg">
<path fill-rule="evenodd" clip-rule="evenodd" d="M2.15001 7.84998C2.24378 7.94371 2.37093 7.99637 2.50351 7.99637C2.6361 7.99637 2.76325 7.94371 2.85701 7.84998L6.00701 4.69998L9.15701 7.84998C9.25131 7.94105 9.37762 7.99145 9.50871 7.99031C9.63981 7.98917 9.76522 7.93659 9.85792 7.84388C9.95063 7.75118 10.0032 7.62577 10.0044 7.49468C10.0055 7.36358 9.95509 7.23728 9.86401 7.14298L6.36401 3.64298C6.27025 3.54924 6.1431 3.49658 6.01051 3.49658C5.87793 3.49658 5.75078 3.54924 5.65701 3.64298L2.15701 7.14298C2.06328 7.23674 2.01062 7.36389 2.01062 7.49648C2.01062 7.62906 2.06328 7.75621 2.15701 7.84998H2.15001Z" fill="#808080"/>
</svg>
