<svg width="20" height="20" viewBox="0 0 20 20" fill="none" xmlns="http://www.w3.org/2000/svg">
<path d="M18.6973 3.77545L18.6974 3.77553C18.8367 3.91482 18.9472 4.08021 19.0227 4.26224C19.0981 4.44426 19.1369 4.63937 19.1369 4.8364C19.1369 5.03343 19.0981 5.22854 19.0227 5.41057C18.9472 5.5926 18.8367 5.75798 18.6974 5.89728L18.6973 5.89735L6.9172 17.6774L1.38787 18.61L2.32128 13.0806L14.1013 1.30051C14.1014 1.30049 14.1014 1.30047 14.1014 1.30045C14.3827 1.01928 14.7641 0.861328 15.1618 0.861328C15.5596 0.861328 15.941 1.01928 16.2223 1.30045C16.2223 1.30047 16.2223 1.30049 16.2223 1.30051L18.6973 3.77545ZM13.1654 3.65024L12.8116 4.00379L13.1653 4.35745L15.6403 6.83245L15.9938 7.18601L16.3474 6.83245L17.9904 5.18945L18.344 4.83583L17.9903 4.48228L15.5153 2.00828L15.1619 1.65497L14.8084 2.00824L13.1654 3.65024ZM14.9324 8.24745L15.2859 7.89397L14.9325 7.54042L12.4585 5.06542L12.1049 4.71172L11.7513 5.06535L3.36728 13.4493L3.25441 13.5622L3.22782 13.7196L2.72482 16.6966L2.60769 17.3898L3.30097 17.2729L6.27797 16.7709L6.43546 16.7444L6.54839 16.6315L14.9324 8.24745Z" fill="#1E1E1E" stroke="black"/>
</svg>
