<svg xmlns="http://www.w3.org/2000/svg" xml:space="preserve" width="1000px" height="335.953px" x="0px" y="0px" viewBox="0 0 1000 335.953"><linearGradient id="a" x1="39.890099" x2="-9.1731005" y1="93.981903" y2="143.0451" gradientUnits="userSpaceOnUse"><stop offset="0" style="stop-color:#f6be00"/><stop offset="1" style="stop-color:#c8c51b"/></linearGradient><path fill="url(#a)" d="m35.092 89.464-12.01-13.251C8.386 101.356 0 130.515 0 160.164h8.284c.039-27.728 9.684-52.959 26.808-70.7z" style="fill:url(#a)"/><linearGradient id="b" x1="-10.4736" x2="31.583" y1="178.85249" y2="220.9099" gradientUnits="userSpaceOnUse"><stop offset="0" style="stop-color:#c8c51b"/><stop offset="1" style="stop-color:#80bc2e"/></linearGradient><path fill="url(#b)" d="M32.96 219.525c-15.039-14.227-24.676-33.499-24.676-59.229v-.133H0c0 30.149 5.38 58.175 16 82.608z" style="fill:url(#b)"/><linearGradient id="c" x1="287.92429" x2="323.68631" y1="147.5425" y2="183.3045" gradientUnits="userSpaceOnUse"><stop offset="0" style="stop-color:#7ecaf0"/><stop offset="1" style="stop-color:#00afc2"/></linearGradient><path fill="url(#c)" d="m296.403 138.776-15.376 15.875c21.295.313 34.374 16.749 33.913 37.724h8.287c0-20.693-9.7-39.52-26.824-53.599z" style="fill:url(#c)"/><linearGradient id="d" x1="330.77979" x2="294.6402" y1="208.41991" y2="244.5589" gradientUnits="userSpaceOnUse"><stop offset="0" style="stop-color:#00afc2"/><stop offset="1" style="stop-color:#009c96"/></linearGradient><path fill="url(#d)" d="M323.227 192.375h-8.287c-.405 17.258-9.628 31.742-30.079 42.503l21.6 29.743c10.535-19.459 16.766-43.338 16.766-72.246z" style="fill:url(#d)"/><linearGradient id="e" x1="60.6143" x2="280.4248" y1="170.041" y2="170.041" gradientUnits="userSpaceOnUse"><stop offset="0" style="stop-color:#0069b3"/><stop offset="1" style="stop-color:#7ecaf0"/></linearGradient><path fill="url(#e)" d="M43.736 135.996a53.85 53.85 0 0 0-.922 9.894c0 49.429 36.842 80.991 83.35 80.991 88.41 0 114.647-72.245 154.246-72.245.202 0 .405.016.616.016l15.376-15.875c-19.108-15.719-47.438-25.574-81.828-25.574-69.997 0-107.284 58.464-139.057 58.464-13.821 0-24.418-15.188-24.418-29.915 0-1.53.109-3.014.258-4.459z" style="fill:url(#e)"/><linearGradient id="f" x1="23.082001" x2="323.22711" y1="51.076698" y2="51.076698" gradientUnits="userSpaceOnUse"><stop offset="0" style="stop-color:#f6be00"/><stop offset="0.6301" style="stop-color:#ed8113"/><stop offset="1" style="stop-color:#e9621d"/></linearGradient><path fill="url(#f)" d="M98.53 63.5c51.099 0 86.567 38.653 132.162 38.653 54.677 0 84.938-26.636 92.535-78.688l-8.287-1.366c-2.303 13.782-11.291 30.36-27.4 30.36-15.203 0-31.313-13.354-54.771-26.229C209.265 12.876 182.333 0 148.716 0 94.649 0 49.03 31.852 23.082 76.213l12.01 13.251C50.616 73.394 72.285 63.5 98.53 63.5Z" style="fill:url(#f)"/><linearGradient id="g" x1="32.964401" x2="284.8772" y1="277.73929" y2="277.73929" gradientUnits="userSpaceOnUse"><stop offset="0" style="stop-color:#80bc2e"/><stop offset="1" style="stop-color:#009c96"/></linearGradient><path fill="url(#g)" d="M151.941 255.875c-39.566 0-89.604-8.574-118.981-36.35L16 242.772c24.387 56.098 76.424 93.181 154.362 93.181 51.522 0 108.525-20.403 136.099-71.332l-21.6-29.743c-25.394 13.368-68.131 20.997-132.92 20.997z" style="fill:url(#g)"/><path d="M454.022 251.175c-14.194-.878-25.06-3.612-35.218-8.863-13.11-6.776-22.851-16.751-29.646-30.355-4.744-9.5-7.513-19.406-8.87-31.74-.497-4.509-.567-18.99-.111-23.152 1.014-9.28 2.872-17.446 5.613-24.674 1.477-3.896 4.786-10.632 6.755-13.753 9.323-14.774 22.585-24.97 39.475-30.35 5.52-1.757 11.165-2.906 17.871-3.636 4.284-.466 15.01-.533 19.674-.122 10.861.956 20.397 3.13 29.674 6.763 2.59 1.014 9.891 4.623 9.892 4.889 0 .127-1.174 7.827-2.609 17.111s-2.609 16.984-2.609 17.112c0 .127-.856-.289-1.902-.925-14.31-8.7-28.771-12.923-42.663-12.454-7.377.249-12.903 1.6-18.45 4.509-3.027 1.587-5.28 3.283-8.071 6.074-2.99 2.988-4.889 5.612-6.924 9.565-2.994 5.813-4.751 11.8-5.81 19.795-.475 3.58-.663 13.87-.328 17.927 1.662 20.128 9.783 34.334 23.285 40.728 5.654 2.678 10.96 3.76 18.472 3.768 2.45.003 5.337-.11 6.413-.248 4.762-.615 9.239-1.906 13.27-3.828l2.056-.98v-28.901h-28.035l-.112-.49c-.061-.268-1.09-6.75-2.287-14.402-1.197-7.652-2.216-14.084-2.264-14.293-.083-.361 1.628-.38 33.588-.38h33.675v78.441l-3.294 1.978c-13.774 8.268-28.455 12.95-45.728 14.584-2.5.236-12.53.44-14.782.302zM589.565 249.975c-15.757-.478-30.759-3.614-45.108-9.432-5.182-2.1-5.98-2.471-5.977-2.781 0-.144 1.273-7.691 2.826-16.77 1.553-9.08 2.824-16.582 2.824-16.67 0-.09 2.275.945 5.055 2.298 13.016 6.334 24.84 10.126 36.685 11.764 3.98.55 11.77.663 14.646.212 4.818-.755 7.815-2.124 10.472-4.781 2.901-2.904 3.968-5.885 3.73-10.43-.208-3.943-1.206-6.366-3.63-8.811-3.707-3.739-8.317-6.121-23.697-12.247-4.962-1.976-10.684-4.34-12.717-5.254-19.185-8.627-28.398-17.432-31.853-30.443-2.114-7.96-2.153-18.33-.098-26.434 4.33-17.083 17.8-28.989 37.603-33.235 5.004-1.073 7.753-1.345 14.816-1.464 18.447-.311 32.045 2.448 47.713 9.68l1.876.866-.212 1.163c-.117.64-1.464 8.09-2.993 16.555-1.528 8.465-2.826 15.437-2.883 15.494-.057.057-.729-.251-1.493-.685-9.295-5.278-21.062-9.613-30.302-11.164-15.51-2.604-25.446.415-27.806 8.449-.454 1.545-.461 5.353-.014 7.07 1.582 6.073 7.087 9.64 26.201 16.98 8.265 3.174 11.704 4.64 17.054 7.272 18.255 8.98 26.728 18.704 29.262 33.584.574 3.371.79 10.685.432 14.594-1.464 15.959-8.42 27.853-20.856 35.665-8.285 5.203-20.192 8.534-31.773 8.888-1.973.06-3.88.133-4.24.162-.358.03-2.853-.014-5.543-.095z" style="opacity:1;vector-effect:none;fill:#FAFAFA;fill-opacity:1;stroke:none;stroke-width:.217391;stroke-linecap:butt;stroke-linejoin:miter;stroke-miterlimit:4;stroke-dasharray:none;stroke-dashoffset:0;stroke-opacity:1;stop-color:#000;stop-opacity:1"/><path d="M701.389 174.09c-1.1-1.778-2.955-4.763-4.123-6.634-1.168-1.87-2.118-3.409-2.111-3.42.007-.01 1.012-.274 2.234-.588 18.077-4.64 31.973-11.335 42.778-20.612 2.114-1.816 5.607-5.313 7.328-7.336 6.534-7.683 10.987-16.04 13.9-26.088.333-1.149.605-2.136.605-2.195 0-.067-10.442-.106-28.444-.106H705.11V91.556h78.336l-.057.416c-.032.23-.162 1.267-.29 2.306-.291 2.38-.863 5.87-1.374 8.389-5.874 28.957-22.55 50.495-49.601 64.058-6.266 3.141-13.007 5.875-19.57 7.936l-2.5.785c-.872.274-3.445 1.007-5.055 1.44l-1.444.39c-.118.032-.761-.915-2.167-3.187z" style="opacity:1;vector-effect:none;fill:#FAFAFA;fill-opacity:1;stroke:none;stroke-width:.111111;stroke-linecap:butt;stroke-linejoin:miter;stroke-miterlimit:4;stroke-dasharray:none;stroke-dashoffset:0;stroke-opacity:1;stop-color:#000;stop-opacity:1"/><path d="M815.857 169.786V142.57H779.43V127h36.428V88.143H833V197h-17.143z" style="opacity:1;vector-effect:none;fill:#FAFAFA;fill-opacity:1;stroke:none;stroke-width:.142857;stroke-linecap:butt;stroke-linejoin:miter;stroke-miterlimit:4;stroke-dasharray:none;stroke-dashoffset:0;stroke-opacity:1;stop-color:#000;stop-opacity:1"/><path d="M862.137 165.396c-.243-.38-1.231-1.94-2.195-3.469l-3.697-5.857c-1.07-1.694-1.934-3.09-1.921-3.104.013-.012.703-.226 1.533-.475 10.286-3.079 18.576-7.262 25.148-12.69 1.49-1.231 5.007-4.806 6.188-6.29 5.034-6.326 8.081-13.531 9.318-22.033.514-3.53.534-3.97.578-13.013l.042-8.561h17.966l.002 7.247c.002 7.212.014 7.783.21 10.48.678 9.32 3.723 17.9 8.712 24.547 1.886 2.513 4.81 5.603 7.137 7.541 6.404 5.334 14.372 9.415 24.437 12.52 1.245.383 2.284.717 2.307.74.024.024-.273.535-.658 1.137-.386.602-2.236 3.526-4.112 6.498a1371.48 1371.48 0 0 1-3.44 5.437c-.054.06-4.425-1.415-6.16-2.08-7.177-2.747-13.731-6.258-19.546-10.47-3.233-2.341-5.985-4.701-8.946-7.672-3.353-3.364-5.704-6.178-8.127-9.725l-.788-1.154-.78 1.14c-8.086 11.792-20.075 21.167-34.679 27.116-2.115.862-4.86 1.86-6.632 2.411-.667.208-1.267.398-1.334.424-.067.025-.319-.263-.563-.645zM981.868 146.473v-21.214h-36.366l.025-7.753.026-7.753 18.158-.025 18.157-.026V88.084l8.612.026 8.611.026v79.499l-8.611.026-8.612.025z" style="opacity:1;vector-effect:none;fill:#FAFAFA;fill-opacity:1;stroke:none;stroke-width:.101015;stroke-linecap:butt;stroke-linejoin:miter;stroke-miterlimit:4;stroke-dasharray:none;stroke-dashoffset:0;stroke-opacity:1;stop-color:#000;stop-opacity:1"/><path d="M734.853 247.036c-2.077-.348-4.207-1.682-5.554-3.476-.474-.632-1.047-1.744-1.298-2.52-.418-1.291-.4-.03-.4-28.22l-.001-26.18h17.28v44.96h89.92v15.52l-49.78-.009c-27.379-.005-49.954-.039-50.167-.074z" style="opacity:1;vector-effect:none;fill:#FAFAFA;fill-opacity:1;stroke:none;stroke-width:.08;stroke-linecap:butt;stroke-linejoin:miter;stroke-miterlimit:4;stroke-dasharray:none;stroke-dashoffset:0;stroke-opacity:1;stop-color:#000;stop-opacity:1"/><path d="M899.559 247.089c-3.018-.398-5.833-2.591-6.984-5.442a10.668 10.668 0 0 1-.428-1.494c-.175-.849-.184-1.695-.185-19.001v-18.113H981.862V189.608h-90.784v-15h108.039V217.255h-89.902V232.157H1000v15l-50.074-.015c-27.54-.008-50.205-.032-50.367-.053z" style="opacity:1;vector-effect:none;fill:#fff;fill-opacity:1;stroke:none;stroke-width:.0980392;stroke-linecap:butt;stroke-linejoin:miter;stroke-miterlimit:4;stroke-dasharray:none;stroke-dashoffset:0;stroke-opacity:1;stop-color:#000;stop-opacity:1"/></svg>