<svg xmlns="http://www.w3.org/2000/svg" xml:space="preserve" width="1000px" height="335.953px" x="0px" y="0px" viewBox="0 0 1000 335.953"><linearGradient id="a" x1="39.8901" x2="-9.1731" y1="93.9819" y2="143.0451" gradientUnits="userSpaceOnUse"><stop offset="0" style="stop-color:#f6be00"/><stop offset="1" style="stop-color:#c8c51b"/></linearGradient><path fill="url(#a)" d="m35.092 89.464-12.01-13.251C8.386 101.356 0 130.515 0 160.164h8.284c.039-27.728 9.684-52.959 26.808-70.7z"/><linearGradient id="b" x1="-10.4736" x2="31.583" y1="178.8525" y2="220.9099" gradientUnits="userSpaceOnUse"><stop offset="0" style="stop-color:#c8c51b"/><stop offset="1" style="stop-color:#80bc2e"/></linearGradient><path fill="url(#b)" d="M32.96 219.525c-15.039-14.227-24.676-33.499-24.676-59.229v-.133H0c0 30.149 5.38 58.175 16 82.608l16.96-23.246z"/><linearGradient id="c" x1="287.9243" x2="323.6863" y1="147.5425" y2="183.3045" gradientUnits="userSpaceOnUse"><stop offset="0" style="stop-color:#7ecaf0"/><stop offset="1" style="stop-color:#00afc2"/></linearGradient><path fill="url(#c)" d="m296.403 138.776-15.376 15.875c21.295.313 34.374 16.749 33.913 37.724h8.287c0-20.693-9.7-39.52-26.824-53.599z"/><linearGradient id="d" x1="330.7798" x2="294.6402" y1="208.4199" y2="244.5589" gradientUnits="userSpaceOnUse"><stop offset="0" style="stop-color:#00afc2"/><stop offset="1" style="stop-color:#009c96"/></linearGradient><path fill="url(#d)" d="M323.227 192.375h-8.287c-.405 17.258-9.628 31.742-30.079 42.503l21.6 29.743c10.535-19.459 16.766-43.338 16.766-72.246z"/><linearGradient id="e" x1="60.6143" x2="280.4248" y1="170.041" y2="170.041" gradientUnits="userSpaceOnUse"><stop offset="0" style="stop-color:#0069b3"/><stop offset="1" style="stop-color:#7ecaf0"/></linearGradient><path fill="url(#e)" d="M43.736 135.996a53.85 53.85 0 0 0-.922 9.894c0 49.429 36.842 80.991 83.35 80.991 88.41 0 114.647-72.245 154.246-72.245.202 0 .405.016.616.016l15.376-15.875c-19.108-15.719-47.438-25.574-81.828-25.574-69.997 0-107.284 58.464-139.057 58.464-13.821 0-24.418-15.188-24.418-29.915 0-1.53.109-3.014.258-4.459l-7.621-1.297z"/><linearGradient id="f" x1="23.082" x2="323.2271" y1="51.0767" y2="51.0767" gradientUnits="userSpaceOnUse"><stop offset="0" style="stop-color:#f6be00"/><stop offset="0.6301" style="stop-color:#ed8113"/><stop offset="1" style="stop-color:#e9621d"/></linearGradient><path fill="url(#f)" d="M98.53 63.5c51.099 0 86.567 38.653 132.162 38.653 54.677 0 84.938-26.636 92.535-78.688l-8.287-1.366c-2.303 13.782-11.291 30.36-27.4 30.36-15.203 0-31.313-13.354-54.771-26.229C209.265 12.876 182.333 0 148.716 0 94.649 0 49.03 31.852 23.082 76.213l12.01 13.251C50.616 73.394 72.285 63.5 98.53 63.5z"/><linearGradient id="g" x1="32.9644" x2="284.8772" y1="277.7393" y2="277.7393" gradientUnits="userSpaceOnUse"><stop offset="0" style="stop-color:#80bc2e"/><stop offset="1" style="stop-color:#009c96"/></linearGradient><path fill="url(#g)" d="M151.941 255.875c-39.566 0-89.604-8.574-118.981-36.35L16 242.772c24.387 56.098 76.424 93.181 154.362 93.181 51.522 0 108.525-20.403 136.099-71.332l-21.6-29.743c-25.394 13.368-68.131 20.997-132.92 20.997z"/><g fill="#0069B3"><path d="M459.052 251.369c-51.179 0-79.462-33.639-79.462-83.396 0-50.03 30.626-83.912 80.406-83.912 19.858 0 36.443 4.67 49.305 11.924l-5.372 34.812c-12.158-7.699-26.41-13.751-43.011-13.751-27.814 0-41.34 20.536-41.34 50.678 0 30.376 14.017 51.654 41.808 51.654 8.895 0 15.196-1.646 21.732-5.153V185.49h-28.041l-4.686-29.682h67.553v78.517c-16.835 11.001-36.692 17.044-58.892 17.044M594.603 250.214c-21.755 0-39.957-4.669-56.324-12.149l5.834-34.117c16.585 8.887 35.061 14.961 51.186 14.961 11.447 0 19.396-4.919 19.396-14.484 0-9.121-4.677-13.338-27.354-21.981-32.242-12.385-46.267-22.896-46.267-49.546 0-31.071 24.301-47.665 55.138-47.665 21.083 0 34.623 3.982 48.633 10.753l-6.076 33.647c-14.453-8.426-29.681-13.063-42.072-13.063-12.15 0-17.992 5.114-17.992 12.603 0 8.176 4.436 12.15 24.527 19.866 35.108 12.837 49.102 24.995 49.102 50.701-.001 35.06-25.708 50.474-57.731 50.474"/></g><g fill="#92979B"><path d="M833.064 197.029V88.121h-17.288v38.888h-36.31v15.562h36.31v54.458zM783.448 91.572h-78.313v15.57h56.878c-8.301 32.32-33.71 48.906-66.904 56.863l8.292 13.322c38.732-10.025 74.519-33.202 80.047-85.755zM744.889 186.65h-17.288v51.866c0 4.692 3.981 8.644 8.651 8.644h98.546v-15.547h-89.909V186.65zM999.133 167.645V88.121h-17.281v21.607h-36.311v15.562h36.311v42.355zM906.123 134.966c10.198 15.555 26.276 25.94 43.564 31.125l8.301-13.142c-23.684-6.739-42.877-20.404-42.877-50.491V89.847h-17.977v12.611c0 30.087-19.186 43.752-42.869 50.491l8.293 13.142c17.289-5.185 33.359-15.57 43.565-31.125zM909.238 217.246h89.895v-42.691H891.076v15.033h90.775v13.484H891.95v35.444c0 4.692 3.967 8.644 8.645 8.644H1000v-15.023h-90.762v-14.891z"/></g></svg>