<svg xmlns="http://www.w3.org/2000/svg" width="110.653" height="30.236" xmlns:v="https://vecta.io/nano"><defs><clipPath id="A"><path d="M0 595.275h841.89V0H0z"/></clipPath></defs><g clip-path="url(#A)" transform="matrix(1.333333 0 0 -1.333333 -66.666576 536.66305)"><g fill="#FAFAFA"><path d="M88.581 396.896h-2.4V381.94h2.4v9.563h2.225v1.338h-2.225zm-6.937.358h-2.397v-1.397h-3.268v-1.34h2.235c-1.208-.889-2.015-2.472-2.015-4.284 0-2.785 1.9-5.042 4.247-5.042s4.249 2.257 4.249 5.042c0 1.812-.808 3.395-2.017 4.284h2.242v1.34h-3.276zm-1.18-10.724c-1.031-.003-1.873 1.652-1.876 3.696s.832 3.698 1.867 3.702 1.875-1.654 1.876-3.695-.831-3.703-1.867-3.703m25.093 6.311h-2.222v4.055h-2.4v-9.045c-.395-.388-1.003-.798-1.832-.784h-3.815c-.567 0-1.021.454-1.021 1.011l.004 8.14h-2.382l.01-8.14c0-1.302 1.067-2.36 2.384-2.36l4.13-.001s1.458-.072 2.522.9v-4.677h2.4v9.565h2.222z"/><path d="M116.419 392.91c0 2.393-1.902 4.333-4.246 4.333s-4.248-1.94-4.248-4.333c0-1.498.746-2.818 1.881-3.596h-4.403v-1.398h1.839l.007-3.596c0-1.306 1.067-2.363 2.385-2.363l8.088-.004v1.352h-7.085c-.559 0-1.017.453-1.017 1.015l.004 3.596h9.208v1.398h-4.294c1.133.778 1.881 2.098 1.881 3.596m-4.18 2.981c1.038.005 1.883-1.325 1.891-2.977s-.818-2.992-1.852-2.998-1.88 1.327-1.888 2.975c-.014 1.651.819 2.996 1.849 3m14.041-4.397c0 1.234-.538 2.332-1.37 3.022h1.503v1.34h-2.369v1.398h-2.399v-1.398h-2.386v-1.34h1.513c-.833-.69-1.37-1.788-1.37-3.022 0-2.098 1.539-3.794 3.437-3.794 1.904 0 3.441 1.696 3.441 3.794m-3.428-2.445c-.588-.006-1.07 1.086-1.08 2.435s.459 2.446 1.049 2.448 1.074-1.086 1.084-2.435c.004-1.349-.467-2.444-1.053-2.448m10.131-3.137v10.972h-2.267v-2.987l-1.095.005v2.993h-2.283v-7.02c-1.656-.593-2.843-2.195-2.843-4.086 0-2.394 1.899-4.33 4.249-4.33 2.343 0 4.245 1.936 4.245 4.33l-.006.123m-2.267 6.649v-2.938c-.34.183-.708.322-1.095.403v2.539zm-1.93-9.711c-1.037-.003-1.877 1.332-1.881 2.979s.828 2.992 1.859 2.994 1.879-1.33 1.883-2.981-.83-2.992-1.861-2.992"/></g><g fill="#009591"><path d="M66.324 389.059c-.059.346-.152.681-.291.991-.438.946-1.047 1.739-1.963 2.273a4.41 4.41 0 0 1-4.547-.029c-.636-.384-1.16-.938-1.498-1.603-.114-.226-.207-.462-.283-.703-.371-1.178-.357-2.763.311-3.838.218-.352.533-.651.918-.801s.843-.133 1.19.093c.448.288.527.841.444 1.331-.105.625-.185 1.242.044 1.855.075.196.179.384.329.53a1.21 1.21 0 0 0 .315.214 1.31 1.31 0 0 0 .785.128c.467-.076.847-.436 1.055-.861s.262-.903.285-1.374c.097-2.053-.393-4.18-.916-6.151l-.167-.608c-.046-.156-.124-.354-.026-.507.043-.064.111-.11.183-.139.305-.123.553.063.757.269 1.204 1.211 1.975 2.773 2.503 4.379a13.94 13.94 0 0 1 .48 1.832c.155.851.244 1.823.092 2.719m8.618 9.489c0 .308-.272.511-.566.502s-.573-.163-.846-.269c-5.295-2.012-11.266-2.393-16.846-1.59-.955.138-1.922.33-2.882.48-.599.094-1.194.23-1.799.275-.516.04-1.16.058-1.577-.3-.55-.476-.511-1.377-.199-1.973.375-.714 1.031-1.249 1.714-1.657.663-.395 1.455-.817 2.246-.767a98.16 98.16 0 0 1 6.379.617c3.614.47 7.404.913 10.799 2.315 1.11.459 2.205 1.03 3.156 1.769.173.131.421.348.421.598"/></g><path d="M59.756 400.362c0-1.15.934-2.082 2.084-2.082s2.082.932 2.082 2.082a1.16 1.16 0 0 1-.113.498c-.178.379-.379.564-.358 1.016.026.613-.758.621-1.181.621-.46 0-.95-.064-1.365-.273-.331-.168-.616-.424-.817-.736-.208-.319-.322-.697-.331-1.078l-.001-.048" fill="#ed1651"/></g></svg>