<svg xmlns="http://www.w3.org/2000/svg" width="1423pt" height="419pt" version="1.0" viewBox="0 0 1423 419"><path fill="#EC5007FF" stroke="#EC5007FF" d="M251.5 1.592c-16.546 1.666-24.549 2.785-35.015 4.898-93.863 18.952-179.464 87.768-206.42 165.943-17.209 49.908-8.732 96.421 23.33 128.022 10.261 10.113 20.481 17.167 34.852 24.052 18.222 8.73 33.692 12.589 60.753 15.153 16.43 1.557 18.509 1.553 34-.068 57.408-6.008 105.312-24.881 151.88-59.839 14.327-10.756 40.612-35.561 49.448-46.665 13.074-16.43 27.067-40.552 34.123-58.823 15.459-40.028 13.618-80.98-5.059-112.507-6.298-10.632-23.728-28.481-34.892-35.733-23.738-15.419-52.879-23.613-86.927-24.444-8.84-.215-17.873-.211-20.073.011m23 25.389c50.321 10.822 84.97 41.961 96.605 86.821 15.5 59.759-18.783 131.692-83.105 174.37-28.614 18.985-66.15 32.107-99.936 34.935-27.035 2.263-57.417-3.247-80.125-14.53-34.17-16.979-55.571-44.454-63.543-81.577-2.676-12.459-2.47-36.047.434-49.648 16.284-76.279 87.092-138.984 171.484-151.859 13.855-2.114 45.162-1.313 58.186 1.488"/><path fill="#FAFAFA" stroke="#FAFAFA" d="M835 180.818c0 55.902-.104 56.893-6.67 63.654-7.118 7.329-16.179 9.508-39.58 9.52L774 254v-18.777l3.75-.704c6.155-1.154 14.009-5.564 19.259-10.813 21.501-21.502 1.756-52.194-33.509-52.085-15.715.048-28.236 5.48-36.444 15.808C723.905 191.395 721 199.343 721 204c0 12.664 12.766 26.602 27.892 30.453l4.608 1.173.288 9.187.287 9.187H709v15.081l54.25-.309c59.934-.342 59.489-.297 68-6.939l3.75-2.927V290h19v-89h24v-16h-24v-54h-19v49.818m-58.48 8.288c12.869 6.397 14.088 20.837 2.374 28.13-12.416 7.73-30.677 4.612-36.802-6.286-5.23-9.305-.084-18.812 12.79-23.631 5.336-1.997 15.758-1.136 21.638 1.787"/><path fill="#F2854EFF" stroke="#F2854EFF" d="m362.925 234.75-6.425 7.75 1.768 7c5.481 21.698 2.358 48.668-8.236 71.128-14.978 31.752-42.161 55.463-74.244 64.76-31.447 9.113-62.684 4.533-89.698-13.153-7.246-4.744-22.773-20.44-26.495-26.784l-2.905-4.951-9.705.193-9.706.193 5.261 10.836c16.273 33.52 45.083 55.693 82.96 63.848 10.991 2.367 34.917 2.419 46.682.101 18.311-3.607 36.44-11.184 51.528-21.538 47.587-32.656 70.113-90.637 55.847-143.754-2.473-9.211-8.241-23.379-9.516-23.379-.38 0-3.583 3.488-7.116 7.75"/><path fill="#FAFAFA" stroke="#FAFAFA" d="M1101 140.477V148h106v17h-106.21l.355 15.829c.349 15.575.403 15.908 3.364 20.695 3.849 6.225 9.37 9.127 19.991 10.509 4.874.634 26.756.929 56 .754l48-.287v-15l-52.331-.5c-60.414-.577-55.169.487-55.169-11.191V179h106.112l-.306-20.966c-.271-18.542-.512-21.173-2.091-22.75-1.668-1.667-5.797-1.802-62.75-2.057l-60.965-.272v7.522M916.415 226.362c-.288.749-.386 4.012-.219 7.25l.304 5.888 51.75.259 51.75.259v9.964l-51.75.259-51.75.259.033 11c.042 13.669 2.164 19.084 9.239 23.57 7.613 4.828 10.818 5.065 64.228 4.735l49.5-.305.296-6.75.295-6.75-47.295-.006c-29.605-.003-48.694-.393-51.034-1.043-4.035-1.121-5.762-3.334-5.762-7.385V265h103v-18.8c0-13.289-.352-19.152-1.2-20-1.879-1.879-120.663-1.72-121.385.162M562.156 172.536c-21.091 4.577-33.741 21.619-28.762 38.746 4.419 15.201 19.76 24.748 40.106 24.958 15.533.16 27.936-4.384 35.538-13.02 11.243-12.774 10.003-29.893-3.004-41.464-10.304-9.166-27.49-12.777-43.878-9.22m21.945 14.602c13.906 4.656 18.499 19.622 8.744 28.495-6.415 5.835-17.392 7.803-27.359 4.906-19.529-5.677-19.198-27.61.508-33.605 3.876-1.179 14.328-1.061 18.107.204"/><path fill="#F4A57DFF" stroke="#F4A57DFF" d="M406.433 149.41c-.547 2.181.719 3.828 9.832 12.796 11.539 11.355 17.08 18.946 22.756 31.175 14.836 31.967 5.609 67.407-23.594 90.613-12.207 9.7-31.747 20.233-32.791 17.676-.263-.644-.515.18-.56 1.83-.175 6.455-8.426 32.098-12.923 40.163-.973 1.745 17.099-4.728 26.847-9.616 33.728-16.913 56.255-43.931 62.556-75.027 2.501-12.341 1.607-32.412-1.978-44.42-5.999-20.099-15.522-35.601-32.043-52.161-6.069-6.083-12.484-12.067-14.254-13.296l-3.22-2.236-.628 2.503M164.055 220.281c-6.177 8.518-15.389 26.827-15.388 30.583.001 1.45 1.811 6.498 4.024 11.219 9.382 20.018 25.329 38.553 46.338 53.861l6.529 4.757 10.445-2.343c11.533-2.586 26.008-7.187 35.997-11.441 6.133-2.612 6.359-2.823 4-3.741-16.397-6.377-25.893-11.185-37.751-19.117-10.904-7.294-23.327-18.741-30.287-27.907-8.6-11.326-16.962-30.793-16.962-39.487 0-4.568-1.624-3.723-6.945 3.616M263.5 311.663c-8.766 4.564-24.815 11.317-34 14.306-3.85 1.253-7.356 2.601-7.79 2.995-1.095.992 21.382 10.45 33.124 13.938 19.842 5.894 40.16 8.9 62.012 9.174l12.346.155 4.029-4.866c6.872-8.298 11.873-16.27 16.922-26.973 4.383-9.293 6.164-14 4.016-10.614-1.492 2.35-13.443 3.595-34.159 3.558-16.427-.029-22.785-.455-32-2.144a4672.96 4672.96 0 0 0-14.5-2.64c-2.212-.393-4.839.424-10 3.111"/><path fill="#F4A57DFF" stroke="#F4A57DFF" d="M259.301 110.499c-66.485 10.11-113.174 51.413-116.022 102.637-.703 12.657.497 26.137 2.093 23.505 5.388-8.881 13.538-20.406 18.74-26.5 5.384-6.307 6.338-8.017 6.668-11.961.213-2.532 1.462-7.995 2.777-12.141 8.352-26.329 33.837-48.76 68.101-59.943 19.535-6.376 28.409-7.6 54.842-7.567 29.756.038 43.465 2.409 68.678 11.879l8.822 3.314v-2.361c0-1.299-.827-3.188-1.839-4.2-3.634-3.634-30.247-12.004-50.17-15.779-11.838-2.242-50.195-2.783-62.69-.883"/><path fill="#FAFAFA" stroke="#FAFAFA" d="M1401.667 131.667c-.367.366-.667 4.866-.667 10V151h-42.088l.294 7.25.294 7.25 20.75.27 20.75.271v16.918l-20.75.271-20.75.27-.294 7.25-.294 7.25h42.052l.268 23.75.268 23.75 9.75.286 9.75.286V131h-9.333c-5.134 0-9.634.3-10 .667M1084 238v8h71v44h20V246.025l35.75-.262 35.75-.263.292-7.75.292-7.75H1084v8"/><path fill="#FAFAFA" stroke="#FAFAFA" d="M1309.987 145.25c-.024 20.803-5.895 39.5-16.171 51.504-6.033 7.048-15.28 14.339-21.671 17.088l-5.231 2.25.293 7.204.293 7.204 3-.32c4.078-.434 13.361-4.26 20.202-8.325 7.496-4.455 22.302-19.037 26.019-25.626l2.974-5.271 4.145 6.411c4.896 7.57 17.584 19.758 25.492 24.486 5.739 3.431 15.003 7.406 19.918 8.545l2.75.638-.056-7.769-.057-7.769-6.693-3.195c-8.667-4.137-16.857-11.522-23.055-20.79-8.283-12.384-11.438-23.658-12.664-45.265l-.696-12.25H1310l-.013 11.25"/><path fill="#F2854EFF" stroke="#F2854EFF" d="M252.5 164.097c-44.92 4.397-88.623 34.908-107.88 75.315-9.905 20.785-13.863 37.944-13.743 59.588.11 20.079-.638 18.217 8.107 20.183 4.116.925 7.611 1.555 7.767 1.399.155-.155-.717-4.287-1.938-9.182-2.694-10.796-3.164-33.614-.924-44.9 6.987-35.205 31.34-67.41 63.111-83.459 17.72-8.951 32.387-12.434 52-12.348 14.925.066 22.651 1.409 36.108 6.278 21.266 7.696 41.999 25.176 51.952 43.803l2.629 4.921 4.701-8.797 4.701-8.797-7.296-7.714c-25.281-26.735-61.539-39.986-99.295-36.29"/><path fill="#FAFAFA" stroke="#FAFAFA" d="M968 189.5v9.5h-72.088l.294 7.25.294 7.25 81.25.256 81.25.256V199h-71v-19h-20v9.5"/><path fill="#FAFAFA" stroke="#FAFAFA" d="M967.924 134.25c-.392 16.736-25.355 34.592-52.424 37.498l-7 .752-.294 7.25c-.341 8.415-1.077 8.047 12.36 6.178 18.932-2.634 40.843-11.783 51.217-21.387l5.942-5.502 1.888 2.099c2.903 3.229 13.216 10.291 19.887 13.619 12.847 6.409 26.774 10.388 41.297 11.801l7.296.71-.296-7.384-.297-7.384-7-.752c-26.61-2.857-52.5-21.076-52.5-36.944V131h-20l-.076 3.25M648 188.5V246h19v-58h24v-16h-24v-41h-19v57.5M1302.173 255.213c.384 19.488 1.349 22.775 8.401 28.587 7.186 5.924 10.004 6.2 63.242 6.2H1422v-15l-44.25-.006c-26.416-.003-45.701-.408-47.85-1.005-6.762-1.878-7.34-3.366-7.9-20.34l-.5-15.149-9.833-.287-9.833-.287.339 17.287M547.667 245.667c-1.03 1.029-.788 18.412.34 24.447 1.448 7.744 5.291 12.785 12.493 16.386l6 3 51.25.293 51.25.292V275l-46.25-.002c-58.587-.002-55.708.993-55.735-19.248L567 245h-9.333c-5.134 0-9.634.3-10 .667M713.415 151.362c-.288.749-.386 4.012-.219 7.25l.304 5.888 49.75.259 49.75.26V150h-49.531c-40.875 0-49.623.238-50.054 1.362M525 157.5v7.5h99v-15h-99v7.5M549 135.5v7.5h51v-15h-51v7.5M738.667 128.667c-.367.366-.667 3.741-.667 7.5V143h51v-15h-24.833c-13.659 0-25.134.3-25.5.667"/></svg>