<svg viewBox="0 0 120.13 20" xmlns="http://www.w3.org/2000/svg">
<g transform="matrix(.655 0 0 .655 25.902 -100.42)">
<path d="m131.04 183.84-.91581-1.8242v-14.595l6.411 16.419h7.3293l-.91616-1.8242v-26.885l.91616-1.8246h-7.9389l.91616 1.8256v14.599l-6.4131-16.425h-7.3272l.91617 1.8256v26.883l-.91617 1.8253z"/>
<path d="m103.24 159.42h6.7176v18.32h-6.7176zm8.5496 24.427 4.2739-4.2735h.0007v-21.985l-4.2746-4.2746h-10.382l-4.2746 4.2746v21.985h.000705l4.2739 4.2735z"/>
<path d="m84.912 183.84-.91581-1.8242v-22.603h4.887l1.8302.91863v-7.0256h-19.528v7.0256l1.8299-.91863h4.8736v22.602l-.91616 1.8253z"/>
<path d="m54.656 183.84-.91546-1.8242v-10.329h6.1066l1.8316.91934v-7.947l-1.832.91969v.001h-6.1062v-6.1676h9.1616l1.8299.91863v-7.0256h-18.015l.91616 1.8256v26.883l-.91616 1.8253z"/>
<path d="m24.949 172.74 2.6367-10.143 2.6363 10.143zm14.85 11.1-.77682-1.6803-7.2189-27.08.66746-1.7734h-9.7709l.66781 1.7734-7.2192 27.08-.77646 1.6803h7.6334l-.35525-2.2567.77505-2.9806h8.3203l.7747 2.9806-.35454 2.2567z"/>
<path d="m-3.8393 159.42h6.1076v9.3772h-6.1076zm-7.0231-6.1066.91616 1.8253v26.883l-.91616 1.8249h7.9389l-.91581-1.8242v-7.1187h2.1445l2.5594 6.9691-.12277 1.9738h8.2441l-1.6168-2.3322-2.7594-7.1205 3.7645-3.7641h.00106v-13.042l-4.275-4.2746z"/>
<path d="m-17.256 183.84-1.8623-2.3495-7.1392-14.382 6.6054-11.926 1.4803-1.8764h-7.9389l.09066 1.4559-5.442 10.082h-1.0608v-9.713l.91581-1.8246h-7.9386l.91616 1.8256v26.883l-.91616 1.8253h7.9386l-.91581-1.8242v-11.065h.98848l5.5167 11.393-.09313 1.4961z"/>
</g>
</svg>