<?xml version="1.0" encoding="utf-8"?>
<!-- Generator: Adobe Illustrator 16.0.0, SVG Export Plug-In . SVG Version: 6.00 Build 0)  -->
<!DOCTYPE svg PUBLIC "-//W3C//DTD SVG 1.1//EN" "http://www.w3.org/Graphics/SVG/1.1/DTD/svg11.dtd">
<svg version="1.1" id="Layer_1" xmlns="http://www.w3.org/2000/svg" xmlns:xlink="http://www.w3.org/1999/xlink" x="0px" y="0px"
	 width="170.167px" height="30.08px" viewBox="0 0 170.167 30.08" enable-background="new 0 0 170.167 30.08" xml:space="preserve">
<g>
	<path fill="#FAFAFA" d="M90.547,7.161c-1.233-7.07-22.49-9.283-47.479-4.93C32.575,4.059,23.101,6.754,15.72,9.787
		c1.133,0.026,1.976,0.285,2.49,0.794c0.397,0.399,0.596,0.949,0.596,1.632v0.698h-2.447v-0.618c0-0.512-0.309-0.835-0.86-0.835
		c-0.463,0-0.744,0.207-0.838,0.62c-0.021,0.115-0.029,0.31,0.014,0.488c0.262,1.074,3.9,1.735,4.297,3.718
		c0.053,0.254,0.119,0.797,0.01,1.577c-0.229,1.596-1.629,2.212-3.413,2.212c-2.49,0-3.501-1.181-3.501-2.811v-0.765h2.626
		l0.006,0.958c0,0.54,0.391,0.838,0.922,0.838c0.504,0,0.801-0.204,0.906-0.622c0.041-0.191,0.067-0.475-0.021-0.689
		c-0.486-1.22-3.885-1.788-4.303-3.762c-0.094-0.442-0.099-0.82-0.023-1.295c0.043-0.26,0.119-0.48,0.217-0.681
		C4.212,15.069-0.575,19.279,0.056,22.916c1.238,7.076,22.49,9.283,47.476,4.934c10.982-1.916,20.857-4.779,28.371-7.983
		c-0.107,0.007-0.212,0.015-0.322,0.015c-1.713,0-3.244-0.639-3.396-2.387c-0.032-0.316-0.033-0.453-0.037-0.631l0.004-4.024
		c0-0.168,0.019-0.473,0.037-0.633c0.205-1.689,1.539-2.384,3.392-2.384c1.43,0,3.186,0.408,3.381,2.388
		c0.025,0.244,0.023,0.513,0.023,0.597v0.004v0.379H76.51v-0.565v-0.002c0-0.013-0.006-0.223-0.03-0.357
		c-0.045-0.201-0.214-0.67-0.923-0.67c-0.695,0-0.875,0.469-0.92,0.67c-0.021,0.112-0.034,0.272-0.034,0.447v4.368
		c-0.002,0.151,0.004,0.27,0.019,0.36c0.01,0.065,0.139,0.669,0.947,0.669c0.807,0,0.932-0.604,0.941-0.669
		c0.021-0.119,0.025-0.261,0.021-0.36v-1.353h-0.977V14.27H79v2.593c0,0.176-0.002,0.304-0.031,0.631
		c-0.045,0.457-0.188,0.846-0.412,1.177C86.53,14.888,91.169,10.743,90.547,7.161 M25.749,19.699l-1.25-8.519h-0.045l-1.283,8.519
		h-2.645l1.774-9.621h4.316l1.766,9.621H25.749z M38.462,19.699l-0.061-8.355H38.36l-1.554,8.355h-2.481l-1.545-8.355h-0.045
		l-0.058,8.355H30.22l0.213-9.621h3.955l1.15,7.148h0.057l1.152-7.148h3.951l0.207,9.621H38.462z M50.03,17.834
		c-0.267,1.865-2.089,2.188-3.379,2.188c-2.142,0-3.468-0.917-3.468-2.777l0.006-0.763h2.591v0.949c0,0.513,0.368,0.826,0.924,0.826
		c0.498,0,0.791-0.201,0.895-0.612c0.043-0.19,0.068-0.47-0.018-0.683c-0.479-1.195-3.851-1.779-4.26-3.718
		c-0.093-0.444-0.097-0.815-0.021-1.291c0.283-1.756,1.975-2.123,3.33-2.123c1.219,0,2.102,0.262,2.633,0.796
		c0.392,0.395,0.594,0.939,0.594,1.616v0.696h-2.424v-0.615c0-0.523-0.326-0.827-0.85-0.827c-0.465,0-0.746,0.206-0.838,0.615
		c-0.015,0.082-0.037,0.282,0.014,0.481c0.262,1.065,3.865,1.718,4.262,3.676C50.068,16.52,50.14,17.059,50.03,17.834
		 M59.019,16.962c0.004,0.178-0.015,0.539-0.024,0.634c-0.148,1.58-1.283,2.386-3.365,2.386c-2.082,0-3.221-0.806-3.367-2.386
		c-0.004-0.095-0.022-0.456-0.02-0.634v-6.887h2.479v7.105c0,0.156,0.006,0.275,0.025,0.357c0.031,0.157,0.188,0.673,0.883,0.673
		c0.703,0,0.857-0.516,0.896-0.673c0.012-0.082,0.016-0.204,0.016-0.357v-7.105h2.478V16.962z M69.713,19.599h-3.451l-2.318-7.619
		h-0.039l0.127,7.619h-2.408v-9.521h3.598l2.146,7.319h0.047l-0.123-7.319h2.422V19.599z"/>
	<g>
		<path fill="#FAFAFA" d="M156.325,22.392h2.26c3.324,0,4.547-1.266,4.547-5.692v-3.853c0-3.852-1.172-5.272-3.662-5.272h-3.145
			V22.392z M153.94,5.466h5.764c2.389,0,4.104,0.866,5.039,2.899c0.752,1.608,0.832,5.405,0.832,6.011
			c0,4.061-0.361,6.408-1.143,7.668c-1.012,1.635-2.914,2.453-6.188,2.453h-4.305V5.466"/>
		<path fill="#FAFAFA" d="M143.206,18.929v0.548c0,2.588,1.607,3.397,3.139,3.397c1.893,0,3.354-0.809,3.354-3.08
			c0-4.208-8.418-3.738-8.418-9.454c0-3.365,2.363-5.16,5.508-5.16c3.424,0,5.346,1.69,5.195,5.561h-2.498
			c0.023-2.081-0.617-3.449-2.877-3.449c-1.434,0-2.885,0.734-2.885,2.79c0,4.181,8.41,3.579,8.41,9.608
			c0,4-2.725,5.289-5.813,5.289c-5.535,0.055-5.535-4.239-5.484-6.05H143.206z"/>
		<polygon fill="#FAFAFA" points="119.194,5.076 119.194,15.286 121.704,15.286 121.704,11.19 123.831,11.19 123.831,9.104 
			121.704,9.104 121.704,5.076 		"/>
		<path fill="#FAFAFA" d="M119.288,22.437v-4.273h-6.971v4.273H119.288z M109.913,24.474v-8.351h11.791v8.351H109.913"/>
		<polygon fill="#FAFAFA" points="138.688,5.076 138.688,15.286 136.226,15.286 136.226,11.19 133.028,11.19 133.028,9.106 
			136.183,9.106 136.183,5.076 		"/>
		<path fill="#FAFAFA" d="M136.577,20.278c0-1.458-1.818-2.643-4.061-2.643c-2.244,0-4.063,1.185-4.063,2.643
			s1.818,2.639,4.063,2.639C134.759,22.917,136.577,21.736,136.577,20.278z M132.517,25.004c-3.617,0-6.541-2.114-6.541-4.726
			c0-2.61,2.924-4.726,6.541-4.726c3.609,0,6.531,2.116,6.531,4.726C139.048,22.89,136.126,25.004,132.517,25.004"/>
		<path fill="#FAFAFA" d="M113.278,5.448c0,0-0.326,5.524,4.141,7.808l-1.287,1.782c0,0-3.275-2.164-4.02-4.532
			c-0.738,2.368-4.018,4.532-4.018,4.532l-1.285-1.782c4.479-2.284,4.15-7.808,4.15-7.808H113.278z"/>
		<path fill="#FAFAFA" d="M128.79,10.506c-0.738,2.368-3.744,4.345-3.744,4.345l-1.287-1.779c4.197-2.101,3.867-7.625,3.867-7.625
			h2.32c0,0-0.328,5.524,3.873,7.625l-1.291,1.779C132.528,14.852,129.53,12.874,128.79,10.506z"/>
		<rect x="167.698" y="5.466" fill="#FAFAFA" width="2.469" height="18.964"/>
	</g>
</g>
</svg>
